<?xml version="1.0" standalone="no"?>
<!DOCTYPE svg PUBLIC "-//W3C//DTD SVG 20010904//EN"
 "http://www.w3.org/TR/2001/REC-SVG-20010904/DTD/svg10.dtd">
<svg version="1.0" xmlns="http://www.w3.org/2000/svg"
 width="500.000000pt" height="500.000000pt" viewBox="0 0 500.000000 500.000000"
 preserveAspectRatio="xMidYMid meet">

<g transform="translate(0.000000,500.000000) scale(0.100000,-0.100000)"
fill="#000000" stroke="none">
<path d="M1454 2806 c-227 -71 -298 -363 -129 -531 66 -67 125 -90 225 -90
103 0 157 22 225 90 69 68 90 121 90 226 0 75 -4 92 -30 144 -70 137 -235 207
-381 161z m231 -39 c59 -30 104 -75 136 -137 20 -37 24 -60 24 -130 0 -73 -4
-92 -27 -135 -31 -60 -77 -104 -138 -136 -37 -20 -60 -24 -130 -24 -73 0 -92
4 -136 27 -123 64 -190 215 -155 345 24 90 116 185 205 213 56 17 166 6 221
-23z"/>
<path d="M1453 2764 c-56 -20 -123 -81 -153 -140 -35 -69 -35 -178 0 -247 86
-169 304 -209 441 -80 119 111 118 299 -2 407 -80 72 -187 94 -286 60z m55
-229 c18 -49 37 -93 41 -98 4 -4 25 38 45 93 30 78 43 100 57 100 11 0 19 -5
19 -11 0 -7 -21 -65 -47 -131 -44 -109 -50 -118 -72 -116 -22 3 -31 19 -73
122 -26 66 -48 124 -48 129 0 4 10 7 22 5 18 -2 29 -20 56 -93z"/>
<path d="M1981 2538 c12 -29 30 -77 41 -105 17 -47 23 -53 48 -53 25 0 31 6
48 53 11 28 29 76 41 105 l21 52 -28 0 c-26 0 -30 -5 -51 -70 -12 -38 -26 -70
-30 -70 -4 0 -17 32 -30 70 -21 66 -24 70 -51 70 l-30 0 21 -52z"/>
<path d="M2230 2485 l0 -105 25 0 25 0 0 105 0 105 -25 0 -25 0 0 -105z"/>
<path d="M2372 2583 c-7 -3 -18 -16 -23 -30 -13 -36 11 -69 61 -84 40 -12 53
-35 26 -45 -7 -3 -30 2 -50 10 -34 14 -37 14 -46 -4 -23 -44 110 -70 150 -30
41 41 20 86 -52 110 -21 6 -38 18 -38 26 0 16 28 18 64 4 21 -8 27 -6 36 10 8
15 6 21 -9 30 -20 10 -96 13 -119 3z"/>
<path d="M2592 2493 c-23 -54 -42 -101 -42 -105 0 -5 11 -8 24 -8 16 0 27 7
31 20 5 16 15 20 55 20 40 0 50 -4 55 -20 4 -14 15 -20 35 -20 l29 0 -43 103
c-39 95 -44 102 -72 105 -29 3 -32 0 -72 -95z m94 -30 c-2 -3 -15 -3 -29 -1
-25 3 -25 4 -11 38 l15 35 15 -34 c8 -19 12 -36 10 -38z"/>
<path d="M2830 2485 l0 -105 25 0 c23 0 25 4 25 40 l0 40 50 0 c43 0 50 3 50
20 0 17 -7 20 -50 20 -47 0 -50 2 -50 25 0 23 3 25 50 25 43 0 50 3 50 20 0
18 -7 20 -75 20 l-75 0 0 -105z"/>
<path d="M3030 2485 l0 -105 30 0 30 0 0 105 0 105 -30 0 -30 0 0 -105z"/>
<path d="M3150 2485 l0 -105 85 0 c78 0 85 2 85 20 0 18 -7 20 -55 20 -52 0
-55 1 -55 25 0 23 3 25 50 25 43 0 50 3 50 20 0 17 -7 20 -50 20 -43 0 -50 3
-50 20 0 18 7 20 55 20 48 0 55 2 55 20 0 18 -7 20 -85 20 l-85 0 0 -105z"/>
<path d="M3380 2485 l0 -105 60 0 c73 0 114 19 136 61 22 43 11 91 -27 123
-26 22 -40 26 -100 26 l-69 0 0 -105z m132 48 c26 -23 24 -78 -4 -97 -12 -9
-33 -16 -45 -16 -22 0 -23 4 -23 65 0 64 1 65 27 65 14 0 35 -7 45 -17z"/>
</g>
</svg>
